PathFileType	4	(X/Y/Z)	Kaydara																																																																																																																									
DataRate	CameraRate	NumFrames	NumMarkers	Units	OrigDataRate	OrigDataStartFrame	OrigNumFrames																																																																																																																					
30	30	9	41	mm	30	1	176																																																																																																																					
Frame#	Time	SALE_LFHD			SALE_RFHD			SALE_LBHD			SALE_RBHD			SALE_LFTShould			SALE_RFTShould			SALE_LRRShould			SALE_RRRShould			SALE_T10			SALE_STRN			SALE_TRUN			SALE_LSHO			SALE_LUPA			SALE_LELB			SALE_LFRM			SALE_LWRA			SALE_LWRB			SALE_LFIN			SALE_RSHO			SALE_RUPA			SALE_RELB			SALE_RFRM			SALE_RWRB			SALE_RFIN			SALE_LFWT			SALE_RFWT			SALE_LBWT			SALE_RBWT			SALE_LTHI			SALE_LKNE			SALE_RWRA			SALE_LSHN			SALE_LANK			SALE_LHEE			SALE_LTOE			SALE_RTHI			SALE_RKNE			SALE_RSHN			SALE_RANK			SALE_RHEE			SALE_RTOE		
		X1	Y1	Z1	X2	Y2	Z2	X3	Y3	Z3	X4	Y4	Z4	X5	Y5	Z5	X6	Y6	Z6	X7	Y7	Z7	X8	Y8	Z8	X9	Y9	Z9	X10	Y10	Z10	X11	Y11	Z11	X12	Y12	Z12	X13	Y13	Z13	X14	Y14	Z14	X15	Y15	Z15	X16	Y16	Z16	X17	Y17	Z17	X18	Y18	Z18	X19	Y19	Z19	X20	Y20	Z20	X21	Y21	Z21	X22	Y22	Z22	X23	Y23	Z23	X24	Y24	Z24	X25	Y25	Z25	X26	Y26	Z26	X27	Y27	Z27	X28	Y28	Z28	X29	Y29	Z29	X30	Y30	Z30	X31	Y31	Z31	X32	Y32	Z32	X33	Y33	Z33	X34	Y34	Z34	X35	Y35	Z35	X36	Y36	Z36	X37	Y37	Z37	X38	Y38	Z38	X39	Y39	Z39	X40	Y40	Z40	X41	Y41	Z41
																																																																																																																												
1	0.01	240.52328	1655.97885	-1992.36343	236.93985	1635.94009	-2126.55441	107.13244	1656.14822	-1992.79633	109.98996	1633.80615	-2119.79095	250.73622	1394.30237	-2031.78879	108.07083	1392.53555	-2026.08429	238.66869	1443.05008	-2148.03131	89.61665	1449.43817	-2135.77591	160.76408	1288.23593	-2202.21069	175.49662	1324.72214	-1976.36963	173.2449	1240.69458	-1930.98862	361.06907	1415.57388	-2110.784	399.68315	1198.21609	-2112.70432	384.03393	1088.29483	-2119.59061	418.43376	986.93802	-2079.26025	371.60664	863.53317	-1982.85614	428.71082	848.79387	-2029.67224	435.69435	815.63858	-1974.98383	-1.20439	1418.55621	-2089.83078	-30.47534	1188.19046	-2150.41046	-66.01364	1089.72923	-2108.41721	-58.75144	977.28378	-2117.42889	-88.69602	837.41074	-2073.50876	-107.62903	802.01027	-2022.29828	298.39636	976.11031	-1990.98663	17.93964	974.59038	-2004.03229	245.09014	1043.47244	-2157.88605	69.09459	1047.82898	-2165.66696	296.56607	677.08069	-2158.68088	282.61585	506.14464	-2081.63971	-54.37983	852.86499	-2012.23679	276.39456	308.35791	-2085.73196	269.95296	124.45023	-2136.42532	230.23136	75.46109	-2198.7674	243.79911	86.65389	-2001.84494	12.69941	724.0715	-2162.06085	34.21555	563.43102	-2060.19043	86.12181	375.43964	-2078.46756	40.21783	123.22268	-2132.24518	83.39996	61.86648	-2204.03641	55.33307	78.89171	-2012.18063
2	0.043	239.84262	1655.93338	-1993.24661	236.87075	1636.03516	-2127.49176	106.51528	1655.88028	-1994.22546	109.8735	1633.72223	-2121.28021	250.58542	1394.55154	-2032.28806	107.79037	1392.35855	-2027.75803	239.4352	1442.79358	-2148.72452	90.20359	1449.00467	-2137.69577	162.1837	1287.68921	-2202.89978	175.06123	1325.03113	-1977.08694	172.49979	1241.13121	-1931.36902	361.48808	1415.57419	-2110.44266	400.08118	1198.15773	-2111.53091	384.18598	1088.33862	-2118.6615	418.46382	986.72844	-2080.45883	370.63751	861.15463	-1987.18369	427.78969	846.93008	-2033.93051	434.5895	812.69867	-1980.11108	-0.88954	1418.15964	-2092.33444	-29.51089	1188.05878	-2152.35519	-65.44111	1089.27795	-2110.30396	-58.04365	976.61026	-2118.04504	-87.36316	836.89209	-2072.47742	-107.43609	802.48917	-2021.12747	298.57729	976.05309	-1989.97314	18.09367	974.59587	-2004.31839	246.12251	1043.27621	-2157.23938	70.16832	1047.61429	-2165.89279	297.23818	677.07962	-2157.91443	282.79032	506.04668	-2081.38809	-54.25471	853.44299	-2011.34964	276.47778	308.32098	-2085.42236	269.92332	124.21337	-2135.21378	230.32089	75.45703	-2198.70163	243.63876	86.60878	-2001.75064	13.3439	724.01253	-2162.23801	34.58421	563.37521	-2060.53772	86.36852	375.47318	-2078.67508	40.3693	123.2464	-2132.23618	83.47986	61.91072	-2203.98758	55.37293	78.87171	-2012.12967
3	0.077	239.08504	1655.91125	-1993.98819	236.98015	1636.08994	-2128.24829	105.49065	1655.66666	-1995.16373	109.9773	1633.46527	-2122.845	250.45725	1394.45297	-2032.36435	107.56489	1392.19406	-2029.17603	240.27084	1442.39883	-2149.16122	91.0068	1448.55331	-2139.44138	163.52797	1287.04849	-2203.4848	174.6977	1325.1593	-1977.51251	172.04165	1241.43265	-1931.66122	362.08805	1415.30609	-2109.98825	400.35004	1197.72812	-2110.68039	384.12552	1088.06435	-2118.1871	418.17158	986.22238	-2082.17636	369.41761	858.09967	-1992.63275	426.74305	844.85535	-2038.90869	433.32649	809.26239	-1986.54816	-0.4895	1417.75833	-2094.69589	-28.56313	1187.9055	-2154.84589	-64.53857	1088.76511	-2112.14874	-56.97807	975.87563	-2118.4938	-85.97506	836.60561	-2071.52191	-107.45802	803.21045	-2019.88602	298.78839	975.97343	-1989.22073	18.26718	974.65492	-2004.68018	247.18206	1043.05428	-2156.49673	71.28387	1047.37236	-2166.12473	297.97174	677.08061	-2157.32834	283.24785	505.93517	-2081.44302	-54.02627	854.23347	-2010.02991	276.73761	308.30713	-2085.45654	270.02615	124.23307	-2135.23361	230.39202	75.46385	-2198.70346	243.53373	86.58511	-2001.71097	14.16907	723.84827	-2162.16324	34.99155	563.43235	-2060.6691	86.65405	375.48161	-2078.47488	40.48623	123.33405	-2132.19543	83.52221	61.97354	-2203.89236	55.44417	78.88592	-2012.05917
4	0.11	238.30297	1655.82428	-1994.45938	237.36492	1636.1055	-2128.76556	105.12633	1655.07767	-1997.46689	110.26773	1633.1839	-2124.31732	250.66065	1394.42886	-2032.6712	107.64662	1392.01462	-2030.42801	241.20068	1442.02988	-2149.62616	91.8432	1448.14957	-2140.98068	164.84577	1286.47491	-2203.97064	174.53915	1325.26947	-1978.06671	171.62931	1241.67007	-1931.94122	362.68227	1414.94354	-2109.64111	400.57091	1197.12708	-2110.32806	383.8596	1087.65427	-2118.31985	417.66106	985.48843	-2084.40521	368.19996	855.10162	-1998.31085	425.78133	843.11935	-2044.62952	432.21409	806.0463	-1993.26385	0.07893	1417.44873	-2096.82281	-26.91503	1187.38937	-2157.45758	-63.6868	1088.37204	-2113.60443	-56.06833	975.26779	-2118.59909	-84.69725	836.08902	-2070.34027	-107.36724	803.96011	-2018.38898	298.95267	975.77934	-1988.20114	18.32341	974.77493	-2004.77509	248.26021	1042.82547	-2155.75363	72.44423	1047.21817	-2166.32523	298.7656	677.07596	-2156.99951	283.76547	505.7375	-2081.47369	-54.04893	854.95628	-2008.72452	277.05149	308.22086	-2085.56641	270.26327	124.30719	-2136.12061	230.45874	75.43128	-2198.7088	243.51015	86.58282	-2001.68671	14.83125	723.77213	-2162.09473	35.35037	563.49915	-2060.54764	86.98928	375.4668	-2078.34641	40.5659	123.37748	-2132.06757	83.57245	62.03156	-2203.84201	55.49732	78.86942	-2012.00211
5	0.143	237.7018	1655.77652	-1994.76578	237.72472	1636.13358	-2129.09332	104.69211	1654.70688	-1998.7767	110.6672	1632.97058	-2125.578	250.65001	1394.33914	-2032.92389	107.74136	1391.93085	-2031.66931	242.1126	1441.66351	-2149.95255	92.67798	1447.82669	-2142.35626	166.054	1285.9938	-2204.366	174.49492	1325.39215	-1978.52478	171.36684	1241.96861	-1932.17255	363.45047	1414.42154	-2109.08783	400.70492	1196.59576	-2110.44144	383.50307	1087.3632	-2119.01978	417.06955	984.81819	-2087.16476	366.90704	852.57523	-2004.29276	424.66198	841.54541	-2050.59906	430.05318	803.00987	-1999.79813	0.61859	1417.15271	-2098.64578	-25.87279	1186.50818	-2158.069	-62.99805	1087.96288	-2114.50623	-55.3702	974.76158	-2118.50677	-84.07012	836.12808	-2068.89404	-107.18055	804.66209	-2016.68839	299.153	975.56915	-1987.36633	18.7105	974.85237	-2005.17639	249.27534	1042.79182	-2155.11932	73.53076	1047.27455	-2166.49368	299.6212	677.04803	-2156.62033	284.13729	505.46127	-2081.35376	-53.75181	855.78407	-2007.31445	277.37076	308.09498	-2085.57404	270.49065	124.27316	-2135.98785	230.60078	75.43549	-2198.72925	243.50901	86.56563	-2001.68396	15.25908	723.81439	-2162.12311	35.82508	563.64563	-2060.32196	87.45493	375.50148	-2078.12271	40.66453	123.43717	-2131.93085	83.57408	62.12592	-2203.74557	55.55898	78.86731	-2011.91544
6	0.177	237.13823	1655.73242	-1994.9144	238.09135	1636.29105	-2129.3045	104.48282	1654.46167	-1999.7261	110.99858	1632.99057	-2126.55365	250.94538	1394.4986	-2033.08807	108.00075	1391.91391	-2032.51282	242.81475	1441.48636	-2150.20538	93.34822	1447.56958	-2143.39767	167.06417	1285.69687	-2204.6965	174.57222	1325.61859	-1978.97507	171.26335	1242.26753	-1932.35153	363.86448	1414.30771	-2108.82721	400.73174	1196.39717	-2111.05835	383.12725	1087.37007	-2120.44586	416.43841	984.59755	-2090.26443	365.22778	850.43343	-2010.50308	423.48507	840.37506	-2056.48544	428.14449	800.56747	-2006.46072	1.11587	1416.94504	-2100.06104	-24.97478	1185.83145	-2158.45978	-62.46293	1087.76588	-2115.14313	-54.92521	974.45572	-2118.2341	-83.68774	836.14021	-2067.69699	-106.96595	805.32257	-2015.13565	299.40563	975.44395	-1986.74942	18.99401	974.86115	-2005.47211	250.15219	1042.90604	-2154.60098	74.42626	1047.43484	-2166.62704	300.4841	676.94572	-2156.23795	284.50846	505.36976	-2081.10458	-53.69033	856.18233	-2006.20987	277.7339	307.99936	-2085.42572	270.68632	124.19185	-2135.85205	230.76015	75.40132	-2198.73856	243.52869	86.54573	-2001.70364	15.59314	723.83423	-2162.25311	36.28985	563.73325	-2060.21255	87.78931	375.50201	-2077.9158	40.78842	123.59432	-2131.86218	83.61627	62.21278	-2203.67706	55.60783	78.89543	-2011.87027
7	0.21	236.90723	1655.75836	-1995.05051	238.41984	1636.4798	-2129.53323	104.19547	1654.60709	-2000.09003	111.26558	1633.03009	-2127.11624	251.23081	1394.63196	-2033.04001	108.29405	1391.88629	-2033.03253	243.34118	1441.48529	-2150.28198	93.86459	1447.48108	-2144.00635	167.8265	1285.60211	-2204.94186	174.65303	1325.77164	-1979.14871	171.35469	1242.48535	-1932.53998	364.33067	1414.3898	-2108.46725	400.77049	1196.48727	-2112.23785	382.65167	1087.64725	-2122.41379	415.73635	984.51195	-2093.52463	363.73329	849.38835	-2015.91614	422.32632	839.67354	-2062.0224	426.39439	798.95477	-2012.51129	1.56155	1416.8541	-2100.87357	-24.30968	1185.5117	-2158.69995	-62.0183	1087.69516	-2115.45654	-54.6545	974.33632	-2118.00903	-83.412	836.34949	-2066.91315	-106.7436	805.78743	-2013.99567	299.6549	975.39963	-1986.35468	19.397	974.90639	-2005.92865	250.84602	1043.00034	-2154.2778	75.269	1047.55859	-2166.83182	301.27548	676.96213	-2155.97626	284.8534	505.27336	-2080.93231	-53.49277	856.7585	-2005.32791	277.94056	307.95883	-2085.28412	270.87626	124.11573	-2135.84717	230.90792	75.38909	-2198.74481	243.52467	86.5607	-2001.70715	16.0826	723.87627	-2162.63351	36.60883	563.77857	-2060.42084	87.97361	375.53062	-2077.95013	40.85362	123.61802	-2131.78833	83.65183	62.24127	-2203.63602	55.648	78.88703	-2011.82816
8	0.243	237.00855	1655.87234	-1995.25696	238.64096	1636.54037	-2129.72824	104.72667	1654.17694	-2000.7814	111.51431	1633.04199	-2127.52274	251.427	1394.66736	-2032.89978	108.56546	1391.82037	-2033.19153	243.67302	1441.59088	-2150.17639	94.20025	1447.491	-2144.19724	168.33284	1285.64377	-2204.98077	174.86294	1325.75684	-1979.16794	171.54352	1242.45117	-1932.64847	364.60449	1414.53445	-2108.38776	400.76641	1196.6478	-2113.79837	382.28428	1087.97127	-2124.81201	415.20164	984.59641	-2096.97021	361.65173	848.47221	-2020.87692	421.22265	839.08012	-2066.73935	425.13462	797.94067	-2017.82806	1.9058	1416.83044	-2101.21201	-23.92168	1185.35294	-2158.77914	-61.76417	1087.68898	-2115.67749	-54.40773	974.25858	-2117.85858	-83.19519	836.47232	-2066.17477	-106.59009	806.06911	-2013.2724	300.01801	975.34599	-1986.23489	19.65146	974.83284	-2006.32858	251.5494	1043.0249	-2154.19174	75.93761	1047.59796	-2167.2197	301.56548	676.64673	-2155.58578	285.05056	505.25322	-2080.99136	-53.30949	857.05956	-2004.73862	278.06955	307.90684	-2085.36331	270.8843	124.07183	-2135.89813	230.89825	75.35252	-2198.75305	243.55957	86.55571	-2001.72653	16.6653	723.99681	-2163.27621	36.8157	563.80817	-2061.05957	88.13175	375.58712	-2078.30338	40.83242	123.64947	-2131.87988	83.61231	62.22139	-2203.64731	55.64024	78.88689	-2011.83502
9	0.277	237.03281	1656.00922	-1995.33768	238.75122	1636.46606	-2129.82666	104.29916	1654.83368	-2000.64041	111.65859	1632.98157	-2127.61108	251.71299	1394.65027	-2032.73468	108.75525	1391.74591	-2033.14209	243.87808	1441.76697	-2149.94034	94.3952	1447.57553	-2144.00803	168.68511	1285.93033	-2205.03113	175.10588	1325.59601	-1979.11484	171.77862	1242.21146	-1932.82196	364.82727	1414.70245	-2108.45871	400.80242	1196.87462	-2115.46921	382.03049	1088.31848	-2127.28745	414.70978	984.53255	-2100.04456	362.08645	848.33801	-2024.61273	420.39486	838.77342	-2070.88776	424.1341	797.32269	-2022.14645	2.14689	1416.77277	-2101.05591	-23.75351	1185.28145	-2158.74847	-61.57794	1087.74574	-2115.75668	-54.28079	974.22646	-2117.81082	-83.16576	836.53694	-2066.02325	-106.40672	806.21223	-2012.99942	300.24826	975.26741	-1986.24252	19.92113	974.80003	-2006.89331	252.10506	1042.99934	-2154.30359	76.59596	1047.58842	-2167.68875	301.8116	676.5947	-2155.64972	285.26886	505.01869	-2081.43921	-53.11325	857.13493	-2004.54437	278.29872	307.85357	-2085.49438	270.94219	124.00308	-2135.98221	230.92236	75.35397	-2198.77319	243.59837	86.54883	-2001.75522	17.1945	724.01375	-2163.97324	36.9126	563.78731	-2061.58997	88.15181	375.61188	-2078.60229	40.87009	123.67521	-2132.02652	83.66076	62.2129	-2203.65677	55.60684	78.90971	-2011.86447
